<svg viewBox="0 0 100 100" fill="none" xmlns="http://www.w3.org/2000/svg" width="500" height="500"><circle cx="50" cy="55" r="44" fill="#FEF3C7" opacity="0.15"/><path d="M20,38 L34,10 L48,32 Z" fill="#E28743" stroke="#1A1A1A" stroke-width="3" stroke-linejoin="round"/><path d="M26,35 L34,16 L42,30 Z" fill="#FCA5A5" stroke="#1A1A1A" stroke-width="1.5" stroke-linejoin="round"/><path d="M80,38 L66,10 L52,32 Z" fill="#E28743" stroke="#1A1A1A" stroke-width="3" stroke-linejoin="round"/><path d="M74,35 L66,16 L58,30 Z" fill="#FCA5A5" stroke="#1A1A1A" stroke-width="1.5" stroke-linejoin="round"/><ellipse cx="50" cy="56" rx="36" ry="30" fill="#F59E0B" stroke="#1A1A1A" stroke-width="3"/><ellipse cx="50" cy="68" rx="18" ry="12" fill="#FCFAF7" stroke="#1A1A1A" stroke-width="1.5"/><path d="M44,28 Q50,34 50,38" stroke="#B45309" stroke-width="2.5" stroke-linecap="round"/><path d="M56,28 Q50,34 50,38" stroke="#B45309" stroke-width="2.5" stroke-linecap="round"/><path d="M36,32 Q44,36 44,40" stroke="#B45309" stroke-width="2" stroke-linecap="round"/><path d="M64,32 Q56,36 56,40" stroke="#B45309" stroke-width="2" stroke-linecap="round"/><ellipse cx="34" cy="50" rx="3" ry="5" fill="#1A1A1A"/><ellipse cx="66" cy="48" rx="3" ry="3" fill="#1A1A1A"/><path d="M30,42 Q34,40 38,44" stroke="#1A1A1A" stroke-width="2" stroke-linecap="round" fill="none"/><circle cx="23" cy="61" r="4.5" fill="#FCA5A5" opacity="0.75"/><circle cx="77" cy="61" r="4.5" fill="#FCA5A5" opacity="0.75"/><polygon points="47,59 53,59 50,63" fill="#FB7185" stroke="#1A1A1A" stroke-width="1" stroke-linejoin="round"/><path d="M43,65 Q50,70 50,64" stroke="#1A1A1A" stroke-width="2.2" stroke-linecap="round" fill="none"/><path d="M57,65 Q50,70 50,64" stroke="#1A1A1A" stroke-width="2.2" stroke-linecap="round" fill="none"/><g stroke="#1A1A1A" stroke-width="2" stroke-linecap="round"><line x1="22" y1="58" x2="6" y2="55"/><line x1="20" y1="63" x2="4" y2="64"/><line x1="21" y1="68" x2="6" y2="72"/><line x1="78" y1="58" x2="94" y2="55"/><line x1="80" y1="63" x2="96" y2="64"/><line x1="79" y1="68" x2="94" y2="72"/></g></svg>